<svg id="Layer_1" data-name="Layer 1" xmlns="http://www.w3.org/2000/svg" viewBox="0 0 453.94 152.21">
  <defs>
    <style>
      .cls-1 {
        fill: #2f2c2c;
      }
    </style>
  </defs>
  <title>broken-tape</title>
  <path class="cls-1" d="M576.35,681c-6.5,3.78-12.55,1.39-15.89.15-7.18-2.51-20.08-12.28-38.27-26.26-4.42-3.23-14.74-10.22-14.51-10.07-9.42-16.85-30-30.85-52.48-38.54-32-11.13-63.11-9.38-85-2.29a107.61,107.61,0,0,0-15.74,6.46,117.3,117.3,0,0,1,16.11-5.12c22.08-5.36,52.07-5.53,83.09,5.24,19.3,6.7,37.18,17.32,47.85,30.42l-0.17.07a116.36,116.36,0,0,0-13.25-6.45c-13.54-5.89-33.36-7.35-49,3-14.83,8.9-27.39,26.25-23,43.6,3.9,16.61,16.7,25.94,27.57,30.86,23.38,10.09,42.17.53,47.89-4.64,4.7-3.54,12.71-12.17,17.11-25.69-5.57,13.11-14.35,20.37-19,23.07-6,4.15-23.27,10.42-42.69.18-9.12-4.86-19-13.81-21.07-25.77-2.65-11.83,6.29-24.38,19-32.3,23-14.31,47.49-1,65.34,9.8l-0.05-.14,0.14,0.2-0.09-.06a34.86,34.86,0,0,1,1.45,8.46,63.82,63.82,0,0,1-3,16.55,62.22,62.22,0,0,0,4.43-16.54,35.77,35.77,0,0,0-.51-7.05l-0.1-.07,0.07-.08c0,0.05,0,.09,0,0.14,1.81,1.11,3.54,2.17,5.19,3.16,18.89,12.39,33.59,21.1,41.68,22.87,3.68,0.92,10.95,2.71,17.59-2.21a16.52,16.52,0,0,0,6.62-9.75A15.6,15.6,0,0,1,576.35,681Zm-242.74-94.8c-7.3-4.33-13.73-5-17.67-5.82l-0.34,3.2c3.84,0.35,10.12.25,17.4,3.65,3.26,1.37,7.14,5.55,5.63,10.51C340.59,593,336.94,588,333.61,586.22Zm-88,49.23c32.7-5,61.61-12.58,81.44-25,4.81-3.21,9.22-6.89,11.29-11.76a8.35,8.35,0,0,0,.32-0.9,8,8,0,0,1-.41.86c-2.46,4.62-7,7.8-11.93,10.6C306.06,620,277.36,626,244.91,631c-32.36,5.94-62,4.41-83.74,11.88a46.08,46.08,0,0,0-14,8.75,45.92,45.92,0,0,1,14.44-7.45C182.75,638.53,213,641.4,245.58,635.45Zm-14,74.72c-28.9,10.82-60.56,13.26-78.09,3.79-18.33-11-19.63-29.91-18.88-36.63,0-5,2.52-16.47,12.57-25.73-10.87,8.37-15,19.77-15.76,25.32-1.59,6.93-3.2,28.42,17.91,43.66,22.07,13.27,54.18,11.26,86.25-.2,32.3-12.63,53.83-35.5,67.06-54.2,12.49-19.87,21.06-32.65,27.28-38.09a96.71,96.71,0,0,1,24.54-17.63,109.88,109.88,0,0,0-26.65,15.2C311.64,632.42,292.31,686.18,231.63,710.17Zm349.59-53.51c-12.44-19.57-38.94-34.24-64.51-54.38-4.06-3.47-8.33-7.09-10.29-11.46-2.54-4.62,2.61-8,7-9.36l-1.3-3.89c-4.17.45-13.84,6.76-9.85,14.9,2.79,6.17,7.24,9.55,11.49,13.31,26.29,20.65,52.83,33.66,66.22,51.63a16.56,16.56,0,0,1,3.6,14.84A16.9,16.9,0,0,0,581.21,656.66Z" transform="translate(-130.62 -577.57)"/>
</svg>
